<svg
  xmlns="http://www.w3.org/2000/svg"
  viewBox="0 0 512 512"
  width="100%"
  height="100%"
>
  <defs>
    <linearGradient id="bg-grad" x1="0%" y1="0%" x2="100%" y2="100%">
      <stop offset="0%" stop-color="#0f172a" />
      <stop offset="100%" stop-color="#1e293b" />
    </linearGradient>

    <linearGradient id="accent-grad" x1="0%" y1="0%" x2="100%" y2="100%">
      <stop offset="0%" stop-color="#10b981" />
      <stop offset="100%" stop-color="#3b82f6" />
    </linearGradient>

    <linearGradient id="pink-grad" x1="0%" y1="100%" x2="100%" y2="0%">
      <stop offset="0%" stop-color="#ec4899" />
      <stop offset="100%" stop-color="#8b5cf6" />
    </linearGradient>
  </defs>

  <rect width="512" height="512" rx="120" fill="url(#bg-grad)" />

  <path
    d="M 120 360 L 392 360 L 372 320 L 140 320 Z"
    fill="url(#pink-grad)"
    opacity="0.9"
  />
  <path
    d="M 160 300 L 352 300 L 332 260 L 180 260 Z"
    fill="url(#accent-grad)"
    opacity="0.9"
  />
  <path
    d="M 200 240 L 312 240 L 292 200 L 220 200 Z"
    fill="url(#pink-grad)"
    opacity="0.9"
  />

  <path
    d="M 256 90 C 228 90 206 112 206 140 C 206 175 256 220 256 220 C 256 220 306 175 306 140 C 306 112 284 90 256 90 Z"
    fill="url(#accent-grad)"
  />

  <circle cx="256" cy="140" r="16" fill="#0f172a" />

  <ellipse cx="256" cy="400" rx="140" ry="15" fill="#10b981" opacity="0.2" />

  <text
    x="256"
    y="460"
    font-family="system-ui, sans-serif"
    font-size="42"
    font-weight="800"
    fill="#f8fafc"
    text-anchor="middle"
    letter-spacing="6"
  >XIBALBÁ</text>
</svg>
